<?xml version="1.0" encoding="utf-8"?>
<!-- Generator: Adobe Illustrator 15.0.2, SVG Export Plug-In . SVG Version: 6.00 Build 0)  -->
<!DOCTYPE svg PUBLIC "-//W3C//DTD SVG 1.1//EN" "http://www.w3.org/Graphics/SVG/1.1/DTD/svg11.dtd">
<svg version="1.1" id="Ebene_1" xmlns="http://www.w3.org/2000/svg" xmlns:xlink="http://www.w3.org/1999/xlink" x="0px" y="0px"
	 width="500px" height="500px" viewBox="0 0 500 500" enable-background="new 0 0 500 500" xml:space="preserve">
<g>
	<path fill="#88B04B" d="M12.9,153c0.801-4.8,1.301-9.7,2.601-14.5c2.2-8.1,5.2-15.7,10.6-22.1c10-11.9,22.601-15.601,37.5-11.8
		c9.7,2.5,17.9,7.699,25.2,14.399c19.6,17.7,30.9,40.3,37.2,65.601c2.3,9.1,3.5,18.3,3.6,27.699c0.101,14.7-2.1,29.101-10,41.9
		c-5.8,9.4-13.899,15.7-25,17.5c-7.8,1.3-15.2-0.2-22.3-3.2c-10-4.2-18.1-10.8-25.4-18.6c-11.199-12-19.199-26-25.1-41.2
		c-4.6-11.9-7.5-24.3-8.7-37c0-0.4-0.2-0.7-0.3-1.1C12.9,164.6,12.9,158.8,12.9,153z"/>
	<path fill="#88B04B" d="M191.4,24.4c4.4,1.1,8.801,2.3,12.801,4.5C213.6,34.2,220.6,42,226.3,51c8.7,13.9,13.5,29.2,16,45.3
		c1.4,9.4,1.9,18.9,1.4,28.5c-0.9,17.9-4.9,35-14.2,50.601c-4.3,7.3-9.8,13.6-17,18.2c-13.2,8.3-28.3,7.5-41.4-2.101
		c-8.5-6.2-14.8-14.3-19.8-23.5c-7.5-13.7-11.7-28.3-13.6-43.7C135.6,107.4,136.2,90.6,140.4,74c3-11.7,7.601-22.7,15-32.3
		c6.7-8.6,15-14.9,26-17c0.2,0,0.5-0.2,0.7-0.3C185.1,24.4,188.2,24.4,191.4,24.4z"/>
	<path fill="#88B04B" d="M310.9,476.5c-7.6,0.801-16-1.8-24.6-3.3c-16.9-3-33.9-5.8-50.9-8.2c-12.3-1.699-24.6-3.199-36.899-4.399
		c-8.101-0.8-16.3-1.3-24.5-1.7c-7.601-0.4-15.101,0-22.7-0.3c-20.8-0.8-40.7-5.2-58.7-16.3c-18.899-11.601-29.8-28.5-32.899-50.5
		c-0.601-4.3-1.7-8.5-1.601-12.9c0.3-7.5,2.101-14.7,4.2-21.8c1.6-5.5,7.3-32.5,44.2-48.6c4.8-2.101,7.3-3.4,13-6.101
		c7.3-3.5,14.2-7.2,20.5-12.2c10.899-8.7,20.399-18.7,29.7-29.1c8.3-9.301,15.8-19.2,23.8-28.601c10-11.7,22.1-20.2,37.6-23.1
		c11.2-2,21.7,0.3,31.5,5.8c8.601,4.8,23.9,22.3,27.101,28c14.8,26.2,29.5,52.4,48.1,76.101c8.7,11,34.8,37.699,37.5,42
		c7.4,11.8,12.9,25.5,14.8,39.399c3.601,26-7.1,52.5-33.3,65.9C346.3,472,335,474.7,323.3,476C319.6,476.5,315.9,476.4,310.9,476.5
		C303.3,477.301,315.9,476.4,310.9,476.5z"/>
	<path fill="#88B04B" d="M488,198.8c-0.2,15-3.801,29.2-9.601,42.801c-7.7,17.899-18.5,33.8-32.899,47c-11,10.1-23.301,18.1-38,21.6
		c-8.9,2.101-17.8,1.9-26.2-2.1c-9.4-4.4-15.3-12-18.7-21.5C359.5,278,358.5,269.1,359.2,260c2.1-29,14.199-53.8,32.8-75.6
		c9.399-11,20.3-20.101,33.399-26.4c7.9-3.8,16-6.3,24.9-6.2c15,0.101,25.8,7.101,32.399,20.4C486.3,179.7,488,188.4,488,198.8z"/>
	<path fill="#88B04B" d="M268,152.1C268.1,134,272.4,116.8,279.7,100.3c5.3-12,12-23.1,20.699-33C310,56.4,320.8,47.2,334.9,42.6
		c11.101-3.601,21.9-3.4,32,3.1c8.2,5.2,13.2,13,16.4,22c4.2,11.5,5.1,23.3,4.1,35.4c-1.899,24.3-10.199,46.399-23.8,66.5
		c-7.7,11.399-17.1,21.3-28.8,28.8c-8,5.1-16.5,8.6-26.2,8.899c-13.2,0.4-23.3-5.3-30.6-16.1c-5.3-7.8-7.9-16.7-9.2-26
		C268.2,160.8,267.9,156.5,268,152.1z"/>
</g>
</svg>
